<svg width="181" height="45" viewBox="0 0 181 45" fill="none" xmlns="http://www.w3.org/2000/svg">
<path d="M169.814 5.46578C168.745 5.21557 167.651 5.07847 166.55 5.05697C165.632 5.05186 164.716 5.12989 163.814 5.28999C157.132 6.49189 151.958 12.0149 151.786 18.1184C151.581 25.477 155.915 31.2004 162.965 32.856C164.034 33.1057 165.129 33.2427 166.229 33.2648C167.149 33.2698 168.066 33.1917 168.97 33.0318C175.648 31.8299 180.822 26.3069 180.993 20.1993C181.195 12.8366 176.864 7.12146 169.814 5.46578ZM166.431 27.656C165.541 27.6644 164.656 27.5431 163.805 27.2962C161.776 26.6937 160.039 25.4189 158.907 23.7018C157.776 21.9847 157.325 19.9382 157.635 17.9315C157.945 15.9248 158.996 14.0898 160.598 12.7576C162.201 11.4253 164.25 10.6835 166.375 10.6658C167.264 10.6574 168.15 10.7787 169 11.0256C171.03 11.6281 172.767 12.9029 173.898 14.62C175.029 16.3371 175.481 18.3836 175.171 20.3903C174.861 22.397 173.809 24.232 172.207 25.5642C170.604 26.8965 168.556 27.6383 166.431 27.656Z" fill="#333333"/>
<path d="M153.752 5.06921C152.664 5.12492 151.573 5.12492 150.484 5.06921C149.906 5.06921 149.336 5.09374 148.771 5.13053C148.448 5.22133 148.149 5.37594 147.893 5.58431C147.685 5.79525 147.505 6.03007 147.358 6.28337C145.036 10.5309 142.77 14.8111 140.479 19.0791C140.389 19.2508 140.29 19.4225 140.188 19.5983C139.965 20.0071 139.759 20.4159 139.524 20.8452L139.485 20.7757L139.442 20.8452L138.791 19.5983C138.689 19.4225 138.59 19.2508 138.496 19.0791C136.204 14.8111 133.939 10.5309 131.617 6.28337C131.476 6.02667 131.302 5.78772 131.099 5.57205C130.844 5.36417 130.546 5.20959 130.225 5.11827C129.66 5.08147 129.09 5.06512 128.512 5.05695C127.423 5.11267 126.332 5.11267 125.244 5.05695H124.43L139.502 33.2648C144.616 23.6987 149.516 14.525 154.57 5.05695L153.752 5.06921Z" fill="#333333"/>
<path d="M53.8778 5.06105C46.2409 5.25727 40.1117 11.6388 40.0989 19.443C40.0989 27.8645 40.0989 36.2873 40.0989 44.7115H46.2238V43.0231C46.2238 39.8303 46.1338 21.9163 46.1553 19.1159C46.1938 14.4923 49.7445 10.8294 54.3575 10.6168C56.6453 10.5238 58.8841 11.2671 60.6175 12.6952C62.3509 14.1233 63.4484 16.1286 63.6862 18.3024C64.1702 22.8729 60.748 27.239 55.9765 27.705C54.7772 27.8154 53.5737 27.8522 52.3487 27.8522V33.3262C53.3724 33.3262 54.3875 33.3262 55.4026 33.3262C63.3307 33.2812 70.1152 26.3764 69.7255 18.7766C69.2971 10.5595 62.6882 4.84029 53.8778 5.06105Z" fill="#333333"/>
<path d="M94.1309 19.9254C95.3067 18.3557 95.9224 16.4666 95.887 14.5373C95.9028 13.2892 95.6515 12.0511 95.1485 10.899C94.6455 9.74687 93.9013 8.70488 92.9616 7.83687C92.0508 6.94253 90.9585 6.23478 89.7515 5.75682C88.5445 5.27886 87.2481 5.04073 85.9415 5.05696H66.1533L69.4942 10.1099H85.8815C86.484 10.1026 87.0815 10.2143 87.6365 10.438C88.1916 10.6617 88.6921 10.9926 89.1067 11.4099C89.5541 11.8004 89.9095 12.2771 90.1495 12.8084C90.3895 13.3398 90.5085 13.9137 90.4988 14.4923C90.5114 15.0827 90.394 15.669 90.1542 16.2134C89.9144 16.7577 89.5576 17.248 89.1067 17.6524C88.6909 18.0701 88.1888 18.401 87.6322 18.624C87.0756 18.8471 86.4766 18.9575 85.873 18.9483L81.1144 18.9115L89.8135 33.2648H96.114L90.1004 23.204C91.7361 22.4885 93.1315 21.3534 94.1309 19.9254Z" fill="#333333"/>
<path d="M33.1559 8.94888C30.8384 6.6547 27.7038 5.2733 24.3711 5.07745C23.8971 5.05565 23.426 5.05565 22.9577 5.07745C22.4894 5.09925 22.0183 5.09925 21.5443 5.07745C18.2131 5.2743 15.0803 6.65562 12.7638 8.94888C10.986 10.5736 9.7027 12.6278 9.0503 14.893C8.59386 16.2892 8.36137 17.7433 8.36072 19.2059V23.0446C8.36072 23.5189 8.2879 33.2649 8.2879 33.2649H14.1772V32.0793C14.1772 31.9444 14.1772 31.8014 14.1772 31.6705C14.1772 30.2193 14.1772 28.768 14.1772 27.3208C14.2458 24.6921 14.2372 22.0676 14.2543 19.443C14.28 14.8439 17.4539 11.2668 21.7927 10.7068H21.9512C22.1439 10.6822 22.3409 10.6741 22.538 10.6659C22.735 10.6577 22.8078 10.6659 22.9663 10.6659C23.1248 10.6659 23.2404 10.6659 23.3732 10.6659C23.5702 10.6659 23.7715 10.6659 23.9642 10.7068H24.1184C28.4487 11.2505 31.6225 14.8357 31.6525 19.4349C31.6525 22.0594 31.6525 24.6881 31.7253 27.3126C31.7253 28.7639 31.7253 30.2111 31.7253 31.6624C31.7253 31.8014 31.7253 31.9444 31.7253 32.0712V33.2567H37.4519C37.4519 33.0687 37.4519 32.8806 37.4519 32.6926C37.5126 32.267 37.5455 31.8383 37.5504 31.4089C37.5504 29.095 37.5504 26.7771 37.5504 24.4591C37.5504 23.9808 37.5504 23.5066 37.5504 23.0324C37.5504 21.7528 37.5504 20.4732 37.5504 19.1937C37.5412 17.7337 37.3059 16.2831 36.8523 14.8889C36.202 12.6277 34.9251 10.5757 33.1559 8.94888Z" fill="#333333"/>
<path fill-rule="evenodd" clip-rule="evenodd" d="M112.84 7.67748C112.406 7.58319 111.967 7.51357 111.525 7.46899C109.846 7.29315 108.146 7.45476 106.536 7.94341C104.927 8.43206 103.442 9.23693 102.177 10.3062C100.913 11.3756 99.8971 12.6856 99.1951 14.1522C98.4931 15.6188 98.1205 17.2094 98.1013 18.8216V18.9484C98.1013 19.0383 98.1013 19.1282 98.1013 19.2141C98.171 22.8989 99.7552 26.4101 102.512 28.9903C105.269 31.5706 108.978 33.0133 112.84 33.0073C111.139 33.0102 109.457 32.6704 107.903 32.0103C106.349 31.3501 104.959 30.3845 103.823 29.1763C102.687 27.9682 101.831 26.5449 101.311 24.9994C100.79 23.4539 100.618 21.821 100.804 20.2075C100.851 19.787 100.923 19.3694 101.018 18.9565C101.455 17.0823 102.373 15.3413 103.691 13.8909C105.009 12.4405 106.685 11.3264 108.568 10.6492C110.45 9.97201 112.479 9.75311 114.473 10.0123C116.466 10.2714 118.36 11.0004 119.984 12.1335C118.249 9.86843 115.71 8.28426 112.84 7.67748Z" fill="#F15A29"/>
<path fill-rule="evenodd" clip-rule="evenodd" d="M127.561 18.9565C127.563 20.5797 127.206 22.1849 126.513 23.6674C125.821 25.1499 124.809 26.4764 123.543 27.5601C122.277 28.6439 120.785 29.4605 119.166 29.9568C117.547 30.453 115.836 30.6177 114.146 30.44C113.714 30.3963 113.285 30.328 112.861 30.2356C110.897 29.8191 109.073 28.9422 107.554 27.6841C106.034 26.4261 104.867 24.8265 104.157 23.0299C103.448 21.2333 103.219 19.2962 103.49 17.3938C103.762 15.4914 104.525 13.6835 105.713 12.1335C103.34 13.7922 101.679 16.2168 101.04 18.9565C100.667 20.56 100.657 22.221 101.011 23.8284C101.365 25.4358 102.074 26.9526 103.091 28.2774C104.212 29.7421 105.679 30.9338 107.372 31.7557C109.066 32.5776 110.939 33.0064 112.84 33.0073H113.148C116.998 32.9303 120.663 31.4166 123.357 28.7908C126.052 26.1649 127.561 22.636 127.561 18.9606V18.9565Z" fill="#F7941D"/>
<path fill-rule="evenodd" clip-rule="evenodd" d="M127.561 18.7439V18.9565C127.563 20.5797 127.206 22.1849 126.513 23.6674C125.821 25.1499 124.809 26.4764 123.543 27.5601C122.277 28.6439 120.785 29.4605 119.166 29.9568C117.547 30.453 115.836 30.6177 114.146 30.44C113.714 30.3963 113.285 30.328 112.861 30.2356C109.981 29.6311 107.431 28.0436 105.691 25.7714C107.232 26.8569 109.022 27.5777 110.912 27.8746C112.802 28.1715 114.739 28.036 116.563 27.4793C118.388 26.9225 120.048 25.9604 121.407 24.6721C122.766 23.3837 123.786 21.8058 124.381 20.0682C124.977 18.3306 125.132 16.4829 124.834 14.6769C124.536 12.8708 123.793 11.1582 122.666 9.67958C121.54 8.20101 120.061 6.99877 118.353 6.17171C116.645 5.34464 114.755 4.91637 112.84 4.92208C116.692 4.92239 120.39 6.36387 123.142 8.93721C125.893 11.5106 127.478 15.0107 127.557 18.6867C127.559 18.7126 127.559 18.7385 127.557 18.7644L127.561 18.7439Z" fill="#FBB040"/>
<path fill-rule="evenodd" clip-rule="evenodd" d="M110.994 5.03655C111.501 4.96184 112.013 4.91815 112.527 4.90573C112.014 4.91888 111.501 4.96257 110.994 5.03655ZM124.657 18.9565C125.045 17.2694 125.032 15.5207 124.618 13.8391C124.205 12.1575 123.402 10.5857 122.268 9.23936C121.134 7.89299 119.699 6.80629 118.067 6.05916C116.436 5.31203 114.649 4.92348 112.84 4.92208H112.544C108.691 4.99164 105.021 6.5004 102.32 9.12441C99.6198 11.7484 98.1051 15.2784 98.1013 18.9565C98.1037 17.3348 98.4633 15.7316 99.1567 14.2511C99.8501 12.7705 100.862 11.4457 102.126 10.3625C103.391 9.27925 104.88 8.46189 106.497 7.96341C108.114 7.46494 109.822 7.29648 111.512 7.46897C111.954 7.51355 112.393 7.58317 112.827 7.67746C114.79 8.09348 116.613 8.96957 118.133 10.2266C119.652 11.4837 120.82 13.0822 121.53 14.8777C122.24 16.6733 122.471 18.6094 122.201 20.5113C121.931 22.4131 121.169 24.2209 119.984 25.7714C122.356 24.116 124.017 21.694 124.657 18.9565Z" fill="#EF4136"/>
<path d="M3.12243 7.27677C2.58767 7.27668 2.05986 7.16116 1.57848 6.93887C1.09711 6.71658 0.67463 6.39326 0.342666 5.9931V24.8515C0.3327 26.1319 0.610457 27.3994 1.15721 28.5686C1.70397 29.7379 2.50701 30.7816 3.5122 31.6296C4.23087 32.2753 5.0377 32.8254 5.91077 33.2648V5.9931C5.57791 6.39434 5.15405 6.71831 4.67109 6.94065C4.18813 7.16299 3.65864 7.27791 3.12243 7.27677Z" fill="#333333"/>
<path fill-rule="evenodd" clip-rule="evenodd" d="M3.1267 0.60097C3.03247 0.60097 2.94252 0.568265 2.84829 0.560089C2.75561 0.553864 2.66257 0.553864 2.56989 0.560089C1.89567 0.559999 1.24841 0.812806 0.76768 1.264C0.286945 1.7152 0.011237 2.32864 0 2.97207V3.05383C0.0157051 3.83102 0.350239 4.57131 0.931702 5.11559C1.51317 5.65988 2.29514 5.9647 3.10956 5.96456C2.42799 5.96456 1.77433 5.70613 1.29238 5.24613C0.810432 4.78613 0.539676 4.16224 0.539676 3.5117C0.533154 3.42323 0.533154 3.33444 0.539676 3.24597C0.539676 3.15603 0.565375 3.07018 0.582508 2.98433C0.677273 2.59017 0.872675 2.22449 1.15132 1.91984C1.42996 1.61518 1.7832 1.38102 2.17959 1.23818C2.57598 1.09534 3.00323 1.04826 3.42329 1.10114C3.84336 1.15401 4.24321 1.30519 4.58725 1.54123C4.21998 1.06449 3.68451 0.730551 3.07958 0.60097H3.1267Z" fill="#F15A29"/>
<path fill-rule="evenodd" clip-rule="evenodd" d="M6.23201 2.98433C6.23201 3.63487 5.96126 4.25876 5.47931 4.71876C4.99736 5.17876 4.34369 5.43719 3.66211 5.43719C3.56943 5.44341 3.47639 5.44341 3.38371 5.43719C3.29142 5.42988 3.19981 5.41621 3.10958 5.3963C2.69244 5.30607 2.30549 5.1179 1.98382 4.84883C1.66214 4.57977 1.41591 4.23833 1.26745 3.85547C1.119 3.4726 1.07301 3.06043 1.13366 2.65631C1.1943 2.2522 1.35967 1.86892 1.61476 1.54123C1.11441 1.89279 0.764446 2.40545 0.629632 2.98433C0.629632 3.07018 0.595367 3.15603 0.586801 3.24597C0.580279 3.33443 0.580279 3.42323 0.586801 3.51169C0.586801 4.16223 0.857557 4.78612 1.33951 5.24612C1.82146 5.70612 2.47512 5.96455 3.1567 5.96455H3.22095C4.03298 5.94747 4.80578 5.6278 5.37408 5.07393C5.94238 4.52005 6.26107 3.77592 6.26199 3.00068L6.23201 2.98433Z" fill="#F7941D"/>
<path fill-rule="evenodd" clip-rule="evenodd" d="M6.23203 2.9399V2.98487C6.23203 3.63541 5.96127 4.2593 5.47932 4.7193C4.99737 5.1793 4.34371 5.43773 3.66213 5.43773C3.56945 5.44395 3.47642 5.44395 3.38373 5.43773C3.29144 5.43042 3.19983 5.41676 3.10961 5.39685C2.50311 5.26817 1.96599 4.93414 1.59766 4.45659C1.94141 4.69263 2.34095 4.84393 2.76075 4.89705C3.18055 4.95016 3.60759 4.90344 4.00391 4.76103C4.40023 4.61863 4.75353 4.38495 5.03241 4.08078C5.31128 3.77662 5.50708 3.41139 5.6024 3.01758C5.62294 2.93002 5.63725 2.84124 5.64523 2.75185C5.65176 2.66338 5.65176 2.57459 5.64523 2.48612C5.64523 1.83558 5.37448 1.21169 4.89253 0.75169C4.41058 0.29169 3.75692 0.0332642 3.07534 0.0332642C3.8883 0.0341673 4.66856 0.338904 5.24898 0.882197C5.8294 1.42549 6.16383 2.16413 6.18063 2.9399H6.23203Z" fill="#FBB040"/>
<path fill-rule="evenodd" clip-rule="evenodd" d="M2.73821 0.0449691C2.84458 0.0291743 2.95186 0.0196175 3.05945 0.0163524C2.95187 0.0198061 2.8446 0.0293619 2.73821 0.0449691ZM5.62076 2.98431C5.6413 2.89676 5.65561 2.80798 5.6636 2.71859C5.67012 2.63012 5.67012 2.54133 5.6636 2.45286C5.6636 1.80232 5.39284 1.17843 4.9109 0.718426C4.42895 0.258426 3.77529 0 3.09371 0H3.06373C2.24724 0.0160922 1.47015 0.338119 0.900342 0.896514C0.330534 1.45491 0.013749 2.20484 0.0184226 2.98431C0.0184226 2.33377 0.289177 1.70988 0.771123 1.24988C1.25307 0.789878 1.90673 0.531453 2.5883 0.531453C2.68099 0.525228 2.77402 0.525228 2.86671 0.531453C2.96094 0.531453 3.05088 0.555982 3.14511 0.572334C3.55771 0.663312 3.94037 0.850199 4.25904 1.11637C4.57772 1.38255 4.82255 1.71976 4.97175 2.09803C5.12095 2.4763 5.1699 2.8839 5.11425 3.28458C5.0586 3.68526 4.90008 4.06661 4.65278 4.39471C5.15226 4.04416 5.50213 3.53308 5.6379 2.9557L5.62076 2.98431Z" fill="#EF4136"/>
</svg>
